<svg width="110" height="42" viewBox="0 0 110 42" fill="none" xmlns="http://www.w3.org/2000/svg">
<path d="M4.7168 32.5176L4.99023 34.3926L5.39062 32.7031L8.20312 22.7812H9.78516L12.5293 32.7031L12.9199 34.4219L13.2227 32.5078L15.4297 22.7812H17.3145L13.8672 37H12.1582L9.22852 26.6387L9.00391 25.5547L8.7793 26.6387L5.74219 37H4.0332L0.595703 22.7812H2.4707L4.7168 32.5176ZM23.1934 37.1953C21.7611 37.1953 20.5957 36.7266 19.6973 35.7891C18.7988 34.8451 18.3496 33.5853 18.3496 32.0098V31.6777C18.3496 30.6296 18.5482 29.6953 18.9453 28.875C19.349 28.0482 19.9089 27.4036 20.625 26.9414C21.3477 26.4727 22.1289 26.2383 22.9688 26.2383C24.3424 26.2383 25.4102 26.6908 26.1719 27.5957C26.9336 28.5007 27.3145 29.7962 27.3145 31.4824V32.2344H20.1562C20.1823 33.276 20.485 34.1191 21.0645 34.7637C21.6504 35.4017 22.3926 35.7207 23.291 35.7207C23.929 35.7207 24.4694 35.5905 24.9121 35.3301C25.3548 35.0697 25.7422 34.7246 26.0742 34.2949L27.1777 35.1543C26.2923 36.515 24.9642 37.1953 23.1934 37.1953ZM22.9688 27.7227C22.2396 27.7227 21.6276 27.9896 21.1328 28.5234C20.638 29.0508 20.332 29.793 20.2148 30.75H25.5078V30.6133C25.4557 29.6953 25.2083 28.9857 24.7656 28.4844C24.3229 27.9766 23.724 27.7227 22.9688 27.7227ZM35.9375 37C35.8333 36.7917 35.7487 36.4206 35.6836 35.8867C34.8438 36.7591 33.8411 37.1953 32.6758 37.1953C31.6341 37.1953 30.778 36.9023 30.1074 36.3164C29.4434 35.724 29.1113 34.9753 29.1113 34.0703C29.1113 32.9701 29.528 32.1172 30.3613 31.5117C31.2012 30.8997 32.3796 30.5938 33.8965 30.5938H35.6543V29.7637C35.6543 29.1322 35.4655 28.6309 35.0879 28.2598C34.7103 27.8822 34.1536 27.6934 33.418 27.6934C32.7734 27.6934 32.2331 27.8561 31.7969 28.1816C31.3607 28.5072 31.1426 28.901 31.1426 29.3633H29.3262C29.3262 28.8359 29.5117 28.3281 29.8828 27.8398C30.2604 27.3451 30.7682 26.9544 31.4062 26.668C32.0508 26.3815 32.7572 26.2383 33.5254 26.2383C34.7428 26.2383 35.6966 26.5443 36.3867 27.1562C37.0768 27.7617 37.4349 28.5983 37.4609 29.666V34.5293C37.4609 35.4993 37.5846 36.2708 37.832 36.8438V37H35.9375ZM32.9395 35.623C33.5059 35.623 34.043 35.4766 34.5508 35.1836C35.0586 34.8906 35.4264 34.5098 35.6543 34.041V31.873H34.2383C32.0247 31.873 30.918 32.5208 30.918 33.8164C30.918 34.3828 31.1068 34.8255 31.4844 35.1445C31.862 35.4635 32.347 35.623 32.9395 35.623ZM42.7441 23.875V26.4336H44.7168V27.8301H42.7441V34.3828C42.7441 34.806 42.832 35.125 43.0078 35.3398C43.1836 35.5482 43.4831 35.6523 43.9062 35.6523C44.1146 35.6523 44.401 35.6133 44.7656 35.5352V37C44.2904 37.1302 43.8281 37.1953 43.3789 37.1953C42.5716 37.1953 41.9629 36.9512 41.5527 36.4629C41.1426 35.9746 40.9375 35.2812 40.9375 34.3828V27.8301H39.0137V26.4336H40.9375V23.875H42.7441ZM48.6426 27.7129C49.4434 26.7298 50.485 26.2383 51.7676 26.2383C54.0007 26.2383 55.127 27.498 55.1465 30.0176V37H53.3398V30.0078C53.3333 29.2461 53.1576 28.6829 52.8125 28.3184C52.474 27.9538 51.9434 27.7715 51.2207 27.7715C50.6348 27.7715 50.1204 27.9277 49.6777 28.2402C49.235 28.5527 48.89 28.9629 48.6426 29.4707V37H46.8359V22H48.6426V27.7129ZM62.2363 37.1953C60.804 37.1953 59.6387 36.7266 58.7402 35.7891C57.8418 34.8451 57.3926 33.5853 57.3926 32.0098V31.6777C57.3926 30.6296 57.5911 29.6953 57.9883 28.875C58.3919 28.0482 58.9518 27.4036 59.668 26.9414C60.3906 26.4727 61.1719 26.2383 62.0117 26.2383C63.3854 26.2383 64.4531 26.6908 65.2148 27.5957C65.9766 28.5007 66.3574 29.7962 66.3574 31.4824V32.2344H59.1992C59.2253 33.276 59.528 34.1191 60.1074 34.7637C60.6934 35.4017 61.4355 35.7207 62.334 35.7207C62.972 35.7207 63.5124 35.5905 63.9551 35.3301C64.3978 35.0697 64.7852 34.7246 65.1172 34.2949L66.2207 35.1543C65.3353 36.515 64.0072 37.1953 62.2363 37.1953ZM62.0117 27.7227C61.2826 27.7227 60.6706 27.9896 60.1758 28.5234C59.681 29.0508 59.375 29.793 59.2578 30.75H64.5508V30.6133C64.4987 29.6953 64.2513 28.9857 63.8086 28.4844C63.3659 27.9766 62.7669 27.7227 62.0117 27.7227ZM73.5645 28.0547C73.291 28.0091 72.9948 27.9863 72.6758 27.9863C71.4909 27.9863 70.6868 28.4909 70.2637 29.5V37H68.457V26.4336H70.2148L70.2441 27.6543C70.8366 26.7103 71.6764 26.2383 72.7637 26.2383C73.1152 26.2383 73.3822 26.2839 73.5645 26.375V28.0547ZM83.3691 33.2891H77.4121L76.0742 37H74.1406L79.5703 22.7812H81.2109L86.6504 37H84.7266L83.3691 33.2891ZM77.9785 31.7461H82.8125L80.3906 25.0957L77.9785 31.7461ZM97.207 31.834C97.207 33.4421 96.8392 34.7376 96.1035 35.7207C95.3678 36.7038 94.3717 37.1953 93.1152 37.1953C91.8327 37.1953 90.8236 36.7884 90.0879 35.9746V41.0625H88.2812V26.4336H89.9316L90.0195 27.6055C90.7552 26.694 91.7773 26.2383 93.0859 26.2383C94.3555 26.2383 95.3581 26.7168 96.0938 27.6738C96.8359 28.6309 97.207 29.9622 97.207 31.668V31.834ZM95.4004 31.6289C95.4004 30.4375 95.1465 29.4967 94.6387 28.8066C94.1309 28.1165 93.4342 27.7715 92.5488 27.7715C91.4551 27.7715 90.6348 28.2565 90.0879 29.2266V34.2754C90.6283 35.2389 91.4551 35.7207 92.5684 35.7207C93.4342 35.7207 94.1211 35.3789 94.6289 34.6953C95.1432 34.0052 95.4004 32.9831 95.4004 31.6289ZM108.438 31.834C108.438 33.4421 108.07 34.7376 107.334 35.7207C106.598 36.7038 105.602 37.1953 104.346 37.1953C103.063 37.1953 102.054 36.7884 101.318 35.9746V41.0625H99.5117V26.4336H101.162L101.25 27.6055C101.986 26.694 103.008 26.2383 104.316 26.2383C105.586 26.2383 106.589 26.7168 107.324 27.6738C108.066 28.6309 108.438 29.9622 108.438 31.668V31.834ZM106.631 31.6289C106.631 30.4375 106.377 29.4967 105.869 28.8066C105.361 28.1165 104.665 27.7715 103.779 27.7715C102.686 27.7715 101.865 28.2565 101.318 29.2266V34.2754C101.859 35.2389 102.686 35.7207 103.799 35.7207C104.665 35.7207 105.352 35.3789 105.859 34.6953C106.374 34.0052 106.631 32.9831 106.631 31.6289Z" fill="white"/>
<path d="M55.5 0C55.7901 0 56.0683 0.115234 56.2734 0.320352C56.4785 0.52547 56.5938 0.803669 56.5938 1.09375V5.46875C56.5938 5.75883 56.4785 6.03703 56.2734 6.24215C56.0683 6.44727 55.7901 6.5625 55.5 6.5625C55.2099 6.5625 54.9317 6.44727 54.7266 6.24215C54.5215 6.03703 54.4062 5.75883 54.4062 5.46875V1.09375C54.4062 0.803669 54.5215 0.52547 54.7266 0.320352C54.9317 0.115234 55.2099 0 55.5 0ZM73 17.5C73 17.7901 72.8848 18.0683 72.6796 18.2734C72.4745 18.4785 72.1963 18.5938 71.9062 18.5938H67.5312C67.2412 18.5938 66.963 18.4785 66.7579 18.2734C66.5527 18.0683 66.4375 17.7901 66.4375 17.5C66.4375 17.2099 66.5527 16.9317 66.7579 16.7266C66.963 16.5215 67.2412 16.4062 67.5312 16.4062H71.9062C72.1963 16.4062 72.4745 16.5215 72.6796 16.7266C72.8848 16.9317 73 17.2099 73 17.5ZM43.4688 18.5938C43.7588 18.5938 44.037 18.4785 44.2421 18.2734C44.4473 18.0683 44.5625 17.7901 44.5625 17.5C44.5625 17.2099 44.4473 16.9317 44.2421 16.7266C44.037 16.5215 43.7588 16.4062 43.4688 16.4062H39.0938C38.8037 16.4062 38.5255 16.5215 38.3204 16.7266C38.1152 16.9317 38 17.2099 38 17.5C38 17.7901 38.1152 18.0683 38.3204 18.2734C38.5255 18.4785 38.8037 18.5938 39.0938 18.5938H43.4688ZM67.8747 5.12531C68.0797 5.33042 68.1949 5.60857 68.1949 5.89859C68.1949 6.18862 68.0797 6.46677 67.8747 6.67188L64.7816 9.765C64.6807 9.86946 64.56 9.95279 64.4265 10.0101C64.2931 10.0674 64.1496 10.0976 64.0043 10.0989C63.8591 10.1001 63.7151 10.0725 63.5807 10.0175C63.4463 9.96247 63.3241 9.88125 63.2214 9.77856C63.1187 9.67586 63.0375 9.55374 62.9825 9.41932C62.9275 9.28491 62.8999 9.14088 62.9011 8.99566C62.9024 8.85043 62.9326 8.70691 62.9899 8.57346C63.0472 8.44002 63.1305 8.31933 63.235 8.21844L66.3281 5.12531C66.5332 4.92027 66.8114 4.80508 67.1014 4.80508C67.3914 4.80508 67.6696 4.92027 67.8747 5.12531ZM46.2184 9.765C46.4247 9.96424 46.701 10.0745 46.9878 10.072C47.2746 10.0695 47.5489 9.95447 47.7517 9.75168C47.9545 9.54889 48.0695 9.27456 48.072 8.98778C48.0745 8.701 47.9642 8.42472 47.765 8.21844L44.6719 5.12531C44.571 5.02085 44.4503 4.93752 44.3168 4.8802C44.1834 4.82288 44.0399 4.79271 43.8947 4.79144C43.7494 4.79018 43.6054 4.81786 43.471 4.87285C43.3366 4.92785 43.2145 5.00906 43.1118 5.11176C43.0091 5.21445 42.9278 5.33657 42.8729 5.47099C42.8179 5.60541 42.7902 5.74943 42.7914 5.89466C42.7927 6.03989 42.8229 6.18341 42.8802 6.31685C42.9375 6.45029 43.0208 6.57098 43.1253 6.67188L46.2184 9.765ZM55.5 8.75C53.1794 8.75 50.9538 9.67187 49.3128 11.3128C47.6719 12.9538 46.75 15.1794 46.75 17.5C46.75 17.7901 46.8652 18.0683 47.0704 18.2734C47.2755 18.4785 47.5537 18.5938 47.8438 18.5938H63.1562C63.4463 18.5938 63.7245 18.4785 63.9296 18.2734C64.1348 18.0683 64.25 17.7901 64.25 17.5C64.25 15.1794 63.3281 12.9538 61.6872 11.3128C60.0462 9.67187 57.8206 8.75 55.5 8.75ZM55.5 10.9375C57.0512 10.937 58.5525 11.486 59.7374 12.4871C60.9223 13.4882 61.7143 14.8767 61.9728 16.4062H49.025C49.2836 14.8764 50.0759 13.4876 51.2613 12.4864C52.4466 11.4853 53.9484 10.9365 55.5 10.9375Z" fill="#EB6F4C"/>
</svg>
